<?xml version="1.0" encoding="utf-8"?>
<!-- Generator: Adobe Illustrator 19.2.1, SVG Export Plug-In . SVG Version: 6.00 Build 0)  -->
<svg version="1.1" id="layer" xmlns="http://www.w3.org/2000/svg" xmlns:xlink="http://www.w3.org/1999/xlink" x="0px" y="0px"
	 viewBox="0 0 652 652" style="enable-background:new 0 0 652 652;" xml:space="preserve">
<style type="text/css">
	.st0{fill:#A0C814;}
</style>
<path class="st0" d="M249.7,284c28.3,0,51.2-22.9,51.2-51.2c0-28.3-22.9-51.2-51.2-51.2c-28.3,0-51.2,22.9-51.2,51.2
	C198.4,261.1,221.4,284,249.7,284z M249.7,193c22,0,39.8,17.8,39.8,39.8c0,22-17.8,39.8-39.8,39.8c-22,0-39.8-17.8-39.8-39.8
	C209.9,210.8,227.7,193,249.7,193z"/>
<path class="st0" d="M121.2,322c0-21.6,17.5-39.2,39.2-39.2l0-11.2c-27.9,0-50.4,22.5-50.4,50.4c0,27.9,22.6,50.4,50.4,50.4
	s50.4-22.6,50.4-50.4h-11.1c0,21.6-17.6,39.2-39.3,39.2S121.2,343.7,121.2,322z"/>
<path class="st0" d="M87.7,322c0,40.2,32.6,72.8,72.8,72.8s72.8-32.6,72.8-72.8l-11.1,0c0,34-27.7,61.6-61.7,61.6
	c-34,0-61.6-27.6-61.6-61.6c0-34,27.6-61.6,61.6-61.6l0-11.2C120.3,249.3,87.7,281.8,87.7,322z"/>
<path class="st0" d="M65.1,322c0,52.7,42.7,95.3,95.4,95.3c52.7,0,95.2-42.7,95.2-95.3h-11.2c0,46.4-37.7,83.9-84,83.9
	c-46.4,0-83.9-37.6-83.9-83.9c0-46.4,37.6-83.9,83.9-83.9l0-11.3C107.8,226.8,65.1,269.4,65.1,322z"/>
<path class="st0" d="M160.4,204.1c-65.1,0-118,52.8-118,118s52.8,118,118,118c65.1,0,117.9-52.8,117.9-118l-11.2,0
	c0,58.9-47.8,106.6-106.7,106.6c-58.9,0-106.6-47.7-106.6-106.6s47.7-106.6,106.6-106.6V204.1z"/>
<path class="st0" d="M160.4,451.3c-71.4,0-129.3-57.9-129.3-129.3c0-71.4,57.9-129.3,129.3-129.3v-11.2C82.9,181.6,20,244.5,20,322
	s62.9,140.4,140.4,140.4c77.6,0,140.4-62.9,140.4-140.4l-11.1,0C289.8,393.4,231.8,451.3,160.4,451.3z"/>
<path class="st0" d="M366.6,304.2c5.6,0,12.5-1.3,16.3-3v-30.4h-19.1v9.6h7.6V294c-1.3,0.2-3.4,0.3-5,0.3c-8.5,0-15-4.5-15-18.9
	c0-14.1,6.6-18.6,16.5-18.6c4.1,0,9.6,0.9,13,2.3l1.2-9.7c-3.8-1.5-10.1-2.5-14.9-2.5c-17,0-28,8.9-28,28.7
	C339.1,295,349.3,304.2,366.6,304.2z"/>
<polygon class="st0" points="559.6,303.1 571.5,303.1 571.5,247.9 559.6,247.9 559.6,269.7 541.8,269.7 541.8,247.9 530,247.9 
	530,303.1 541.8,303.1 541.8,279.5 559.6,279.5 "/>
<polygon class="st0" points="511.3,303.1 511.3,257.8 523.3,257.8 523.3,247.9 487.3,247.9 487.3,257.8 499.3,257.8 499.3,303.1 "/>
<polygon class="st0" points="459.4,279.6 478.9,279.6 478.9,269.9 459.4,269.9 459.4,257.7 482.3,257.7 482.3,247.9 447.5,247.9 
	447.5,303.1 483.1,303.1 483.1,293.3 459.4,293.3 "/>
<path class="st0" d="M415,304.7c15.7,0,23.3-8.4,23.3-29.3c0-20.4-7.6-29.2-23.3-29.2c-15.7,0-23.3,8.8-23.3,29.2
	S399.6,304.7,415,304.7z M415,256.1c7.5,0,11.1,4.7,11.1,19.4c0,14.6-3.6,19.5-11.1,19.5c-7.5,0-11.2-4.9-11.2-19.5
	C403.8,260.9,407.5,256.1,415,256.1z"/>
<polygon class="st0" points="618.8,293.3 595.1,293.3 595.1,279.6 614.6,279.6 614.6,269.9 595.1,269.9 595.1,257.7 618,257.7 
	618,247.9 583.2,247.9 583.2,303.1 618.8,303.1 "/>
<polygon class="st0" points="445.9,331.7 456.9,331.7 456.9,375.4 468.5,375.4 468.5,331.7 479.5,331.7 479.5,322.1 445.9,322.1 "/>
<rect x="343.1" y="322.1" class="st0" width="11.7" height="53.3"/>
<path class="st0" d="M569.6,356.9c0,6.2-2.1,9.6-7.9,9.6c-5.7,0-8-3.5-8-9.6v-34.8h-11.6v35.2c0,12.8,6.6,19.1,19.5,19.1
	c12.8,0,19.4-6.3,19.4-19.1v-35.2h-11.5L569.6,356.9L569.6,356.9z"/>
<path class="st0" d="M423.5,336.3c0-2.8,1.4-5.5,7.2-5.5c3.6,0,6.9,1,10.1,2.4l1.3-9.3c-3.7-1.7-7.5-2.6-12.4-2.6
	c-12.3,0-17.6,7.1-17.6,16.1c0,17.2,21.2,13.9,21.2,23.4c0,3.7-2.3,6.1-7.2,6.1c-4.8,0-8.8-1.6-12.8-3.8l-1.5,9.5
	c4.1,2.4,9.2,3.8,14.8,3.8c11.5,0,18-6.4,18-16.8C444.7,341.8,423.5,344.5,423.5,336.3z"/>
<polygon class="st0" points="393.4,353.2 377,322.1 366.4,322.1 366.4,375.4 377,375.4 377,344.3 393.4,375.4 404,375.4 404,322.1 
	393.4,322.1 "/>
<polygon class="st0" points="586.4,322.1 586.4,331.7 597.4,331.7 597.4,375.4 609,375.4 609,331.7 620,331.7 620,322.1 "/>
<rect x="485.4" y="322.1" class="st0" width="11.7" height="53.3"/>
<polygon class="st0" points="503,331.7 514,331.7 514,375.4 525.6,375.4 525.6,331.7 536.6,331.7 536.6,322.1 503,322.1 "/>
</svg>
