<?xml version="1.0" standalone="no"?>
<!DOCTYPE svg PUBLIC "-//W3C//DTD SVG 20010904//EN"
 "http://www.w3.org/TR/2001/REC-SVG-20010904/DTD/svg10.dtd">
<svg version="1.0" xmlns="http://www.w3.org/2000/svg"
 width="600.000000pt" height="600.000000pt" viewBox="0 0 600.000000 600.000000"
 preserveAspectRatio="xMidYMid meet">

<g transform="translate(0.000000,600.000000) scale(0.100000,-0.100000)"
fill="#000000" stroke="none">
<path d="M2254 4511 c-265 -224 -418 -593 -440 -1056 -14 -306 39 -561 140
-673 97 -107 267 -90 324 32 30 63 28 106 -15 264 -141 530 -161 959 -57 1256
22 63 72 159 110 214 9 12 14 22 12 22 -2 0 -35 -26 -74 -59z"/>
<path d="M2465 2829 c-152 -22 -235 -89 -235 -189 0 -54 20 -100 59 -133 39
-33 83 -41 147 -29 320 65 451 82 635 82 175 0 283 -17 363 -56 27 -14 50 -23
52 -21 9 8 -104 122 -163 164 -198 141 -578 222 -858 182z"/>
<path d="M1835 2771 c-13 -12 -117 -49 -157 -57 -59 -11 -126 -7 -159 10 -18
9 -34 16 -36 16 -10 0 55 -106 81 -132 40 -41 112 -75 185 -88 113 -20 198 9
233 81 17 33 17 39 2 83 -10 29 -28 56 -48 71 -33 25 -83 33 -101 16z"/>
<path d="M2056 2595 c-48 -17 -83 -50 -91 -86 -6 -27 1 -60 48 -214 7 -23 12
-100 12 -185 0 -139 -1 -148 -28 -202 -15 -31 -42 -69 -58 -83 -41 -34 -29
-32 52 11 41 22 96 63 134 101 106 106 155 232 155 403 0 79 -4 104 -24 146
-41 87 -127 134 -200 109z"/>
<path d="M2440 2281 c0 -24 3 -28 23 -24 43 8 48 -12 45 -198 l-3 -174 -32
-10 c-24 -7 -33 -15 -33 -31 0 -28 16 -31 115 -24 73 5 80 7 83 28 3 19 -1 22
-33 22 -20 0 -38 6 -41 13 -2 7 -3 82 -2 167 3 183 -2 189 110 -120 38 -104
44 -112 82 -108 l31 3 3 204 c3 213 7 234 46 229 16 -2 22 3 24 25 l3 27 -96
0 c-78 0 -97 -3 -102 -16 -8 -21 12 -39 45 -39 l27 0 3 -165 c1 -96 -1 -160
-6 -155 -5 6 -28 62 -52 125 -23 63 -54 145 -68 183 l-26 67 -73 0 -73 0 0
-29z"/>
<path d="M2964 2176 c-79 -35 -115 -160 -78 -269 22 -64 63 -97 120 -97 55 0
89 21 115 71 23 46 24 63 5 79 -12 9 -18 5 -34 -27 -28 -53 -55 -75 -88 -71
-35 4 -76 61 -72 98 3 25 4 25 106 28 l102 3 0 45 c0 44 -26 110 -52 132 -23
19 -90 23 -124 8z m78 -47 c16 -9 48 -64 48 -84 0 -3 -34 -5 -75 -5 l-75 0 0
28 c0 35 9 49 40 61 33 13 38 13 62 0z"/>
<path d="M3278 2174 c-36 -19 -48 -43 -48 -99 0 -51 29 -90 72 -99 100 -19
103 -20 106 -49 5 -40 -22 -67 -68 -67 -45 0 -71 25 -79 78 -4 23 -12 37 -21
37 -20 0 -28 -154 -8 -166 8 -5 17 -3 24 6 9 12 16 12 55 -2 40 -14 47 -14 82
0 47 20 72 71 64 132 -7 47 -33 72 -85 80 -74 12 -83 16 -92 41 -13 33 2 62
37 70 42 11 76 -14 86 -64 8 -41 24 -55 31 -29 3 6 7 37 10 67 6 63 -4 91 -27
72 -11 -9 -22 -10 -41 -2 -37 14 -66 12 -98 -6z"/>
<path d="M3622 2175 c-36 -16 -52 -48 -52 -105 0 -56 31 -87 104 -102 68 -15
85 -33 70 -75 -8 -23 -16 -29 -48 -31 -48 -4 -93 34 -98 82 -2 20 -9 31 -18
31 -12 0 -16 -17 -18 -79 -3 -85 8 -114 32 -81 12 17 16 17 30 6 19 -16 79
-16 117 -1 59 25 80 130 35 175 -13 13 -41 26 -62 30 -80 12 -89 18 -89 55 0
29 5 37 29 49 44 21 79 -1 86 -54 3 -27 10 -41 23 -43 15 -3 17 6 17 77 0 45
-4 81 -9 81 -5 0 -11 -5 -13 -12 -3 -9 -12 -9 -38 0 -42 15 -57 15 -98 -3z"/>
<path d="M3939 2167 c-98 -65 -98 -259 -1 -334 30 -22 47 -28 89 -28 46 0 56
4 88 35 41 40 55 82 55 165 0 73 -26 133 -68 163 -42 30 -117 30 -163 -1z
m154 -65 c25 -25 33 -102 18 -160 -19 -69 -90 -102 -137 -64 -38 31 -48 63
-45 155 1 29 9 46 31 69 27 27 36 30 72 25 22 -3 50 -14 61 -25z"/>
<path d="M4333 2183 c-62 -12 -87 -129 -39 -178 13 -13 35 -26 48 -29 85 -16
101 -22 109 -42 4 -12 2 -31 -5 -45 -9 -19 -21 -25 -56 -27 -58 -4 -80 13 -87
66 -13 94 -54 54 -48 -46 5 -74 15 -91 39 -66 13 12 20 14 29 5 17 -17 104
-13 132 5 52 34 58 149 10 180 -13 9 -44 18 -67 21 -61 8 -78 19 -78 52 0 34
27 61 62 61 32 0 54 -25 62 -72 8 -42 36 -53 37 -15 0 12 1 42 3 67 2 25 1 51
-2 58 -6 17 -32 15 -32 -2 0 -13 -4 -13 -27 0 -28 14 -47 15 -90 7z"/>
<path d="M1919 1635 c-8 -8 -20 -22 -27 -30 -8 -9 -9 -15 -3 -15 6 0 11 -21
11 -50 0 -27 5 -50 10 -50 6 0 10 22 10 49 0 30 5 51 13 54 10 4 10 6 0 6 -7
1 -13 7 -13 15 0 8 6 16 13 19 6 2 9 7 6 11 -4 4 -13 0 -20 -9z"/>
<path d="M4160 1630 c-16 -16 -18 -25 -10 -40 6 -11 18 -20 28 -20 13 0 12 3
-5 15 -13 9 -20 22 -17 30 8 21 64 19 81 -2 13 -16 13 -16 4 3 -10 20 -31 34
-52 34 -5 0 -18 -9 -29 -20z"/>
<path d="M1733 1565 c0 -44 2 -61 4 -37 2 23 2 59 0 80 -2 20 -4 1 -4 -43z"/>
<path d="M2852 1633 c26 -4 27 -7 31 -76 l3 -72 2 72 2 72 33 4 c17 2 3 4 -33
4 -36 0 -53 -2 -38 -4z"/>
<path d="M3533 1565 c0 -44 2 -61 4 -37 2 23 2 59 0 80 -2 20 -4 1 -4 -43z"/>
<path d="M4380 1632 c0 -5 7 -9 15 -9 8 0 15 4 15 9 0 4 -7 8 -15 8 -8 0 -15
-4 -15 -8z"/>
<path d="M2451 1618 c-1 -9 -7 -19 -13 -21 -10 -4 -10 -6 0 -6 8 -1 12 -18 12
-51 0 -41 3 -50 18 -49 10 0 12 3 5 6 -8 3 -13 23 -13 49 0 28 4 44 13 44 8 0
9 3 1 8 -6 4 -14 14 -17 22 -4 12 -6 12 -6 -2z"/>
<path d="M4371 1603 c-1 -6 -4 -20 -7 -30 -5 -17 -5 -17 6 0 6 10 9 23 6 30
-3 9 -5 9 -5 0z"/>
<path d="M1781 1545 l2 -60 7 50 c4 28 3 54 -1 60 -5 5 -8 -16 -8 -50z"/>
<path d="M1830 1587 c27 -15 36 -14 25 2 -3 6 -16 11 -28 11 -21 0 -21 -1 3
-13z"/>
<path d="M1966 1584 c-17 -17 -21 -51 -7 -73 5 -8 8 0 7 24 -1 47 23 67 56 46
21 -13 22 -13 9 2 -17 21 -45 22 -65 1z"/>
<path d="M2090 1590 c-24 -15 -7 -18 20 -3 14 7 18 13 10 13 -8 0 -22 -4 -30
-10z"/>
<path d="M2185 1593 c11 -3 24 -10 28 -17 6 -7 7 -6 4 4 -2 8 -14 16 -28 17
-19 1 -20 1 -4 -4z"/>
<path d="M2257 1594 c19 -5 23 -13 26 -57 l4 -52 -1 55 c-1 51 -3 55 -26 57
-21 1 -22 1 -3 -3z"/>
<path d="M2329 1583 c-13 -16 -12 -17 3 -5 9 8 27 12 40 10 19 -3 23 -10 26
-48 4 -59 12 -65 12 -9 0 25 -5 50 -12 57 -18 18 -53 15 -69 -5z"/>
<path d="M2503 1545 c0 -33 2 -45 4 -27 2 18 2 45 0 60 -2 15 -4 0 -4 -33z"/>
<path d="M2590 1591 c21 -6 25 -13 25 -48 0 -32 3 -39 13 -31 28 24 -2 89 -41
87 -20 -1 -20 -2 3 -8z"/>
<path d="M2667 1579 c4 -13 8 -18 11 -10 2 7 -1 18 -6 23 -8 8 -9 4 -5 -13z"/>
<path d="M2700 1596 c0 -2 9 -6 20 -9 11 -3 18 -1 14 4 -5 9 -34 13 -34 5z"/>
<path d="M2956 1584 c-18 -17 -21 -60 -6 -69 6 -3 7 1 4 9 -5 13 2 16 40 16
25 0 46 3 46 8 0 4 -21 5 -46 3 -35 -2 -45 0 -42 10 8 25 37 35 60 20 21 -13
22 -13 9 2 -17 21 -45 22 -65 1z"/>
<path d="M3105 1593 c11 -3 27 -10 35 -17 13 -10 13 -9 1 7 -7 9 -23 16 -35
16 -20 -1 -20 -2 -1 -6z"/>
<path d="M3215 1593 c11 -3 24 -10 28 -17 6 -7 7 -6 4 4 -2 8 -14 16 -28 17
-19 1 -20 1 -4 -4z"/>
<path d="M3293 1545 c0 -33 2 -45 4 -27 2 18 2 45 0 60 -2 15 -4 0 -4 -33z"/>
<path d="M3328 1593 c7 -3 16 -2 19 1 4 3 -2 6 -13 5 -11 0 -14 -3 -6 -6z"/>
<path d="M3423 1592 c-7 -4 -15 -22 -19 -38 -7 -36 16 -65 49 -63 21 2 21 2
-1 6 -49 9 -48 87 0 96 20 4 20 4 3 5 -11 1 -26 -2 -32 -6z"/>
<path d="M3582 1588 c-13 -13 -17 -74 -4 -81 4 -3 7 14 7 36 0 38 2 42 28 45
21 3 29 -2 36 -20 6 -14 10 -17 10 -7 1 21 -19 39 -44 39 -12 0 -26 -5 -33
-12z"/>
<path d="M3700 1585 c-7 -9 -10 -18 -6 -22 3 -3 6 -1 6 6 0 6 10 16 23 21 15
6 17 9 6 9 -9 1 -22 -6 -29 -14z"/>
<path d="M3759 1598 c-5 -20 -2 -95 4 -91 9 6 9 -1 -3 -31 -10 -28 -37 -34
-60 -13 -12 10 -12 9 -1 -5 18 -25 47 -22 65 4 18 25 22 138 6 138 -5 0 -10
-1 -11 -2z"/>
<path d="M3813 1545 c0 -33 2 -45 4 -27 2 18 2 45 0 60 -2 15 -4 0 -4 -33z"/>
<path d="M3900 1591 c14 -4 26 -15 28 -24 3 -13 -4 -17 -33 -17 -33 0 -36 2
-30 21 5 15 4 19 -4 15 -20 -13 -13 -74 10 -86 23 -13 69 -6 69 10 0 6 -9 5
-20 -2 -15 -9 -25 -10 -37 -2 -33 20 -26 34 16 34 33 0 41 4 41 18 0 24 -20
42 -44 41 -18 -1 -17 -2 4 -8z"/>
<path d="M3990 1596 c0 -2 11 -6 25 -8 13 -3 22 -1 19 3 -5 9 -44 13 -44 5z"/>
<path d="M3064 1564 c-4 -14 -3 -34 2 -45 7 -15 9 -8 9 26 0 52 -2 55 -11 19z"/>
<path d="M3363 1540 c0 -30 2 -43 4 -27 2 15 2 39 0 55 -2 15 -4 2 -4 -28z"/>
<path d="M3971 1577 c-1 -12 11 -23 33 -32 19 -8 37 -23 39 -32 4 -14 5 -13 6
4 1 16 -8 24 -33 33 -19 6 -37 19 -39 28 -4 15 -5 15 -6 -1z"/>
<path d="M2153 1535 c0 -27 2 -38 4 -22 2 15 2 37 0 50 -2 12 -4 0 -4 -28z"/>
<path d="M4421 1568 c-1 -12 -12 -18 -38 -21 -36 -3 -35 -4 8 -5 42 -2 48 -5
53 -28 4 -15 9 -24 12 -21 3 3 -3 25 -14 49 -11 23 -21 35 -21 26z"/>
<path d="M2542 1545 c0 -16 2 -22 5 -12 2 9 2 23 0 30 -3 6 -5 -1 -5 -18z"/>
<path d="M4218 1557 c17 -8 22 -17 19 -34 -2 -12 0 -20 4 -17 15 9 10 52 -7
58 -27 10 -40 5 -16 -7z"/>
<path d="M2041 1544 c0 -11 3 -14 6 -6 3 7 2 16 -1 19 -3 4 -6 -2 -5 -13z"/>
<path d="M3491 1548 c0 -9 -4 -25 -7 -35 -5 -17 -5 -17 6 0 6 10 9 25 7 35 -4
15 -5 15 -6 0z"/>
<path d="M3648 1523 c-3 -12 -16 -23 -29 -26 -22 -4 -22 -4 -3 -6 24 -1 48 22
42 41 -3 7 -7 3 -10 -9z"/>
<path d="M3690 1526 c0 -8 4 -17 9 -20 5 -4 7 3 4 14 -6 23 -13 26 -13 6z"/>
<path d="M2324 1510 c1 -9 12 -15 29 -16 24 -1 24 -1 3 3 -14 2 -27 10 -29 16
-2 7 -3 5 -3 -3z"/>
<path d="M4140 1526 c0 -2 8 -10 18 -17 15 -13 16 -12 3 4 -13 16 -21 21 -21
13z"/>
<path d="M4337 1511 c-4 -17 -3 -21 5 -13 5 5 8 16 6 23 -3 8 -7 3 -11 -10z"/>
<path d="M3130 1511 c0 -5 -10 -12 -22 -14 -22 -4 -22 -4 -2 -6 12 0 27 6 34
14 9 10 9 15 1 15 -6 0 -11 -4 -11 -9z"/>
<path d="M1988 1493 c7 -3 16 -2 19 1 4 3 -2 6 -13 5 -11 0 -14 -3 -6 -6z"/>
<path d="M2578 1493 c7 -3 16 -2 19 1 4 3 -2 6 -13 5 -11 0 -14 -3 -6 -6z"/>
<path d="M2978 1493 c6 -2 18 -2 25 0 6 3 1 5 -13 5 -14 0 -19 -2 -12 -5z"/>
<path d="M3998 1493 c6 -2 18 -2 25 0 6 3 1 5 -13 5 -14 0 -19 -2 -12 -5z"/>
<path d="M4188 1493 c6 -2 18 -2 25 0 6 3 1 5 -13 5 -14 0 -19 -2 -12 -5z"/>
</g>
</svg>
